<svg viewBox="0 0 24 24" height="28" width="28" xmlns="http://www.w3.org/2000/svg" fill="#12A454">
  <path d="m19 12c-.553 0-1 .448-1 1v8c0 .551-.448 1-1 1h-14c-.552 0-1-.449-1-1v-14c0-.551.448-1 1-1h8c.553 0 1-.448 1-1s-.447-1-1-1h-8c-1.654 0-3 1.346-3 3v14c0 1.654 1.346 3 3 3h14c1.654 0 3-1.346 3-3v-8c0-.553-.447-1-1-1z"/>
  <path d="m9.376 11.089c-.07.07-.117.159-.137.255l-.707 3.536c-.033.164.019.333.137.452.095.095.223.146.354.146.032 0 .065-.003.098-.01l3.535-.707c.098-.02.187-.067.256-.137l7.912-7.912-3.535-3.535z"/>
  <path d="m23.268.732c-.975-.975-2.561-.975-3.535 0l-1.384 1.384 3.535 3.535 1.384-1.384c.472-.471.732-1.099.732-1.767s-.26-1.296-.732-1.768z"/>
</svg>